<?xml version="1.0" encoding="UTF-8"?>
<svg xmlns="http://www.w3.org/2000/svg" viewBox="0 0 32 32" width="32" height="32">
  <!-- Background Circle (optional) -->
  <circle cx="16" cy="16" r="15" fill="white" stroke="#E0E0E0" stroke-width="1"/>
  
  <!-- WavesIcon - Base Wave Icon -->
  <path d="M4,16 C7,13 10,10 16,16 C22,22 25,19 28,16" 
        stroke="#3F72AF" stroke-width="2.5" fill="none" stroke-linecap="round"/>
  
  <!-- FavoriteIcon - Heart -->
  <path d="M16,21 L14.3,19.5 C11.4,16.8 9.5,15.1 9.5,13 C9.5,11.2 10.9,9.8 12.7,9.8 C13.7,9.8 14.6,10.3 15.2,11 L16,11.9 L16.8,11 C17.4,10.3 18.3,9.8 19.3,9.8 C21.1,9.8 22.5,11.2 22.5,13 C22.5,15.1 20.6,16.8 17.7,19.5 L16,21 Z" 
        fill="#FF7E67"/>
</svg>